<?xml version="1.0" encoding="UTF-8"?><svg version="1.1" width="1271px" height="1271px" viewBox="0 0 1271.0 1271.0" xmlns="http://www.w3.org/2000/svg" xmlns:xlink="http://www.w3.org/1999/xlink"><defs><clipPath id="i0"><path d="M38.625,38.625 C90.125,-12.875 173.225,-12.875 224.725,38.625 L634.825,448.725 L1045.025,38.725 C1096.525,-12.775 1179.625,-12.775 1231.125,38.725 C1282.625,90.225 1282.625,173.325 1231.125,224.825 L820.925,634.825 L1230.725,1044.625 C1282.325,1096.225 1282.325,1179.325 1231.225,1230.825 C1179.725,1282.325 1096.625,1282.325 1045.125,1230.825 L634.925,820.825 L224.725,1230.825 C173.625,1282.325 90.225,1282.325 38.625,1230.825 C-12.875,1179.325 -12.875,1096.225 38.625,1044.725 L448.825,634.725 L38.625,224.725 C-12.875,173.225 -12.875,90.125 38.625,38.625 Z"></path></clipPath></defs><g transform="translate(0.2749999999998636 0.7749999999999773)"><g clip-path="url(#i0)"><polygon points="0,0 1269.75,0 1269.75,1269.45 0,1269.45 0,0" stroke="none" fill="#34E89E"></polygon></g></g></svg>