<?xml version="1.0" encoding="UTF-8"?><svg version="1.1" width="491px" height="491px" viewBox="0 0 491.0 491.0" xmlns="http://www.w3.org/2000/svg" xmlns:xlink="http://www.w3.org/1999/xlink"><defs><clipPath id="i0"><path d="M287.4,361.8 C299.5,361.8 309.3,371.6 309.3,383.7 L309.3,468.3 C309.3,480.4 299.5,490.2 287.4,490.2 L202.8,490.2 C190.7,490.2 180.9,480.4 180.9,468.3 L180.9,383.7 C180.9,371.6 190.7,361.8 202.8,361.8 Z M468.3,361.8 C480.4,361.8 490.2,371.6 490.2,383.7 L490.2,468.3 C490.2,480.4 480.4,490.2 468.3,490.2 L383.7,490.2 C371.6,490.2 361.8,480.4 361.8,468.3 L361.8,383.7 C361.8,371.6 371.6,361.8 383.7,361.8 Z M106.5,361.8 C118.6,361.8 128.4,371.6 128.4,383.7 L128.4,468.3 C128.4,480.4 118.6,490.2 106.5,490.2 L21.9,490.2 C9.8,490.2 0,480.4 0,468.3 L0,383.7 C0,371.6 9.8,361.8 21.9,361.8 Z M287.4,180.9 C299.5,180.9 309.3,190.7 309.3,202.8 L309.3,287.4 C309.3,299.5 299.5,309.3 287.4,309.3 L202.8,309.3 C190.7,309.3 180.9,299.5 180.9,287.4 L180.9,202.8 C180.9,190.7 190.7,180.9 202.8,180.9 Z M468.3,180.9 C480.4,180.9 490.2,190.7 490.2,202.8 L490.2,287.4 C490.2,299.5 480.4,309.3 468.3,309.3 L383.7,309.3 C371.6,309.3 361.8,299.5 361.8,287.4 L361.8,202.8 C361.8,190.7 371.6,180.9 383.7,180.9 Z M106.5,180.9 C118.6,180.9 128.4,190.7 128.4,202.8 L128.4,287.4 C128.4,299.5 118.6,309.3 106.5,309.3 L21.9,309.3 C9.8,309.3 0,299.5 0,287.4 L0,202.8 C0,190.7 9.8,180.9 21.9,180.9 Z M106.5,0 C118.6,0 128.4,9.8 128.4,21.9 L128.4,106.5 C128.4,118.6 118.6,128.4 106.5,128.4 L21.9,128.4 C9.8,128.4 0,118.6 0,106.5 L0,21.9 C0,9.8 9.8,0 21.9,0 L106.5,0 Z M287.4,0 C299.5,0 309.3,9.8 309.3,21.9 L309.3,106.5 C309.3,118.6 299.5,128.4 287.4,128.4 L202.8,128.4 C190.7,128.4 180.9,118.6 180.9,106.5 L180.9,21.9 C180.9,9.8 190.7,0 202.8,0 Z M468.3,0 C480.4,0 490.2,9.8 490.2,21.9 L490.2,106.5 C490.2,118.6 480.4,128.4 468.3,128.4 L383.7,128.4 C371.6,128.4 361.8,118.6 361.8,106.5 L361.8,21.9 C361.8,9.8 371.6,0 383.7,0 Z"></path></clipPath></defs><g clip-path="url(#i0)"><polygon points="0,0 490.2,0 490.2,490.2 0,490.2 0,0" stroke="none" fill="#34E89E"></polygon></g></svg>