<?xml version="1.0" encoding="UTF-8"?><svg version="1.1" width="200px" height="200px" viewBox="0 0 200.0 200.0" xmlns="http://www.w3.org/2000/svg" xmlns:xlink="http://www.w3.org/1999/xlink"><defs><clipPath id="i0"><path d="M200,0 L200,200 L0,200 L0,0 L200,0 Z"></path></clipPath><clipPath id="i1"><path d="M2.70774191,0.0313370606 C4.90774191,-0.268662939 5.60774191,1.13133706 13.4077419,24.7313371 C18.0077419,38.5313371 21.6077419,50.2313371 21.4077419,50.8313371 C20.9297252,52.2653873 20.3833674,52.2034203 18.9077419,52.5313371 C17.1077419,52.9313371 16.2077419,50.8313371 8.20774191,27.0313371 C3.50774191,12.8313371 -0.192258091,0.931337061 0.00774190863,0.731337061 C0.207741909,0.431337061 1.50774191,0.131337061 2.70774191,0.0313370606 Z"></path></clipPath><clipPath id="i2"><path d="M26,0 L28.7,2.6 L31.3,5.3 L25.9,10.1 C22.9,12.7 18.3,17 15.5,19.6 L10.5,24.4 L17.5,30.7 C18.0416667,31.1861111 18.5949074,31.6857253 19.1508809,32.1900013 L19.818795,32.7968043 C23.0479167,35.7350309 26.25,38.7111111 27.7,40 L30.9,42.9 L28.6,45.7 L26.4,48.5 L13.2,36.8 C8.1880597,32.3373134 3.83604366,28.2988639 1.60028793,26.0762614 L1.32078879,25.7967689 C0.474470929,24.9450434 0,24.4134328 0,24.3 C0,24 4.4,19.7 9.8,14.8 C10.0163265,14.6040816 10.2336526,14.4073303 10.4516587,14.2100247 L11.1073974,13.6167243 C16.0359434,9.15868388 21.1469388,4.56122449 22.8,3 L26,0 Z"></path></clipPath><clipPath id="i3"><path d="M11.8020246,2.01428302 C15.2020246,0.314283023 17.4020246,-0.0857169771 24.4020246,0.0142830229 C29.1020246,0.114283023 34.3020246,0.614283023 35.9020246,1.01428302 L38.9020246,1.91428302 L39.5020246,25.314283 L29.5020246,25.314283 L29.2020246,17.114283 L28.9020246,8.81428302 L23.7020246,8.81428302 C19.3020246,8.91428302 17.9020246,9.41428302 15.4020246,11.814283 C11.5020246,15.514283 10.0020246,20.314283 10.7020246,26.614283 C11.9020246,35.914283 16.8020246,39.914283 26.3020246,39.014283 C29.4020246,38.714283 32.8020246,38.214283 33.9020246,37.814283 C35.6020246,37.314283 36.2020246,37.814283 37.3020246,40.814283 C38.8020246,44.914283 38.4020246,45.514283 33.5020246,47.214283 C28.7020246,48.814283 17.6020246,48.514283 13.4020246,46.714283 C4.80202457,43.014283 0.102024566,35.214283 0.00202456599,24.814283 C-0.097975434,13.314283 3.50202457,6.41428302 11.8020246,2.01428302 Z"></path></clipPath><clipPath id="i4"><path d="M10,0 L10,30.3 L12.1,28.4 C13.5189189,27.1513514 17.7081812,21.5216947 21.6693384,15.7710205 L22.2333425,14.9491323 C25.0423667,10.8401753 27.6621622,6.77297297 29,4.3 C31.2,0.3 31.6,0 35.7,0 L40,0 L40,47 L30.1,47 L29.8,33.3 L29.5,19.7 L25.1,26 C22.7,29.4 18.1,35.6 14.8,39.6 C9.1,46.8 8.9,47 4.5,47 L0,47 L0,0 L10,0 Z"></path></clipPath><clipPath id="i5"><path d="M4.9,0 L18,11.8 C33.3,25.6 33.5,22.3 16.5,37.5 L4.9,47.4 C4.6,47.4 3.4,46.3 2.2,45 L0,42.7 L10,33.8 C13.6,30.5333333 16.8444444,27.5333333 18.6074074,25.7777778 L18.8732943,25.511069 C19.5908279,24.7855032 20,24.3192982 20,24.2 C20.0300161,24.1099516 19.6545968,23.6505066 18.9656902,22.9190215 C18.6848381,22.6208112 18.3518839,22.2773874 17.9730579,21.8953467 C16.1853477,20.0924668 13.376083,17.4296012 10.2,14.6 L0.3,5.6 L4.9,0 Z"></path></clipPath></defs><g transform=""><g transform="translate(2.842170943040401e-14 200.00000000000003) scale(1.0 -1.0)"><g clip-path="url(#i0)"><polygon points="0,0 200,0 200,200 0,200 0,0" stroke="none" fill="#0F3443"></polygon></g><g transform="translate(141.1922580913631 73.7686629394309)"><g clip-path="url(#i1)"><polygon points="-2.84225768e-14,0 21.4156884,0 21.4156884,52.5723843 -2.84225768e-14,52.5723843 -2.84225768e-14,0" stroke="none" fill="#B7B6C2"></polygon></g></g><g transform="translate(7.000000000000123 75.60000000000007)"><g clip-path="url(#i2)"><polygon points="8.8817842e-16,0 31.3,0 31.3,48.5 8.8817842e-16,48.5 8.8817842e-16,0" stroke="none" fill="#B7B6C2"></polygon></g></g><g transform="translate(94.59797543400869 75.68571697707583)"><g clip-path="url(#i3)"><polygon points="3.55271368e-15,7.49400542e-16 39.5020246,7.49400542e-16 39.5020246,48.2568495 3.55271368e-15,48.2568495 3.55271368e-15,7.49400542e-16" stroke="none" fill="#34E89E"></polygon></g></g><g transform="translate(45.00000000000114 76.00000000000006)"><g clip-path="url(#i4)"><polygon points="0,0 40,0 40,47 0,47 0,0" stroke="none" fill="#34E89E"></polygon></g></g><g transform="translate(165.8999999999949 75.6000000000003)"><g clip-path="url(#i5)"><polygon points="0,0 29.3674073,0 29.3674073,47.4 0,47.4 0,0" stroke="none" fill="#B7B6C2"></polygon></g></g></g></g></svg>